<svg xmlns="http://www.w3.org/2000/svg" viewBox="0 0 24 24" width="100%" height="100%"><path fill="currentColor" fill-rule="evenodd" d="M12,1 C15.3023942,1 18.2648939,2.45526111 20.2811947,4.75947878 L20.0469159,4.49987168 C20.1544583,4.61526803 20.2595506,4.73296485 20.3621098,4.85288252 C20.5110192,5.02707667 20.6542598,5.20542501 20.7919329,5.38820389 C20.8103609,5.41264874 20.829068,5.43770449 20.8476706,5.4628421 C20.9947286,5.6615822 21.134956,5.86497697 21.2683611,6.0731626 C21.2737986,6.0816483 21.2791874,6.09008322 21.284565,6.09852596 L21.3590476,6.21712069 C22.3994366,7.89731958 23,9.87852525 23,12 C23,14.4466479 22.2012221,16.7067313 20.8502239,18.5336924 C20.8306192,18.5601755 20.8111761,18.5862263 20.7916211,18.612187 C20.6542598,18.794575 20.5110192,18.9729233 20.3624632,19.1465891 C20.3361204,19.1773801 20.3099254,19.207666 20.2835687,19.2378064 C18.2674507,21.5434826 15.3038193,23 12,23 C8.40649985,23 5.21545863,21.2768684 3.20806713,18.6117961 C3.18894421,18.5862804 3.16949841,18.5602429 3.15016642,18.5341162 C3.00385087,18.336357 2.86436824,18.1339684 2.73163895,17.9268374 C2.72620098,17.918351 2.72081239,17.9099165 2.71543499,17.901474 L2.64095241,17.7828793 C1.60056336,16.1026804 1,14.1214748 1,12 C1,9.54976394 1.80112255,7.28664007 3.1557236,5.45827244 C3.17190946,5.43648215 3.18835563,5.41445273 3.20488114,5.39248853 C3.26320065,5.31493614 3.32233425,5.2384668 3.38244321,5.16280721 C3.43194412,5.10051429 3.48249223,5.03827992 3.53369672,4.97662023 C3.56630916,4.93733428 3.59963998,4.89776384 3.63324328,4.85843319 C3.66113983,4.82579015 3.68878337,4.793811 3.71660661,4.76199458 C5.7325493,2.45651736 8.69618072,1 12,1 Z M12,16 C11.1085532,16 10.2418737,16.106041 9.41188717,16.3061972 C9.9769274,19.1155806 11.0327236,21 12,21 C12.9672764,21 14.0230726,19.1155806 14.5881021,16.3069911 C13.7581263,16.106041 12.8914468,16 12,16 Z M7.49497188,16.9624049 L7.24896239,17.076106 C6.61066459,17.3822429 6.00647959,17.7481477 5.44365848,18.1665695 C6.33578324,19.1134107 7.4287667,19.8666633 8.65500314,20.3578752 C8.16682009,19.416381 7.77475679,18.2623531 7.49497188,16.9624049 Z M16.5045177,16.9616416 L16.458653,17.1720188 C16.1825568,18.3865531 15.8067876,19.4673205 15.3451588,20.358304 C16.5716599,19.8664924 17.6649773,19.1128865 18.555615,18.1663915 C17.9213287,17.6945319 17.2340013,17.289492 16.5045177,16.9616416 Z M4.24330459,7.4333393 L4.14636078,7.60121742 C3.41630665,8.90187186 3,10.4023191 3,12 C3,13.6674504 3.45346015,15.2289895 4.24378994,16.5680268 C5.13570089,15.9023276 6.11613073,15.3495605 7.1639954,14.9293153 C7.05612478,13.9962541 7,13.0130781 7,12 C7,10.9869219 7.05612478,10.0037459 7.1637999,9.06902285 C6.11608298,8.65052445 5.13561966,8.09781693 4.24330459,7.4333393 Z M19.7562101,7.43197317 L19.5618994,7.57561678 C18.7223189,8.17701311 17.8081535,8.68091355 16.8359553,9.07076565 C16.9438752,10.0037459 17,10.9869219 17,12 C17,13.0130781 16.9438752,13.9962541 16.8362001,14.9309772 C17.883917,15.3494755 18.8643803,15.9021831 19.7566954,16.5666607 C20.5465398,15.2289895 21,13.6674504 21,12 C21,10.3325496 20.5465398,8.77101047 19.7562101,7.43197317 Z M14.8842435,9.67706233 L14.6199534,9.7358862 C13.7736848,9.90905784 12.8974627,10 12,10 C11.0090588,10 10.0440134,9.88912638 9.11659263,9.67910773 C9.04100166,10.4173618 9,11.1954027 9,12 C9,12.8045973 9.04100166,13.5826382 9.11565579,14.3219404 C10.0440134,14.1108736 11.0090588,14 12,14 C12.9909412,14 13.9559866,14.1108736 14.8834074,14.3208923 C14.9589983,13.5826382 15,12.8045973 15,12 C15,11.1950409 14.9589615,10.4166621 14.8842435,9.67706233 Z M12,3 L11.909991,3.00538207 C10.9678683,3.11747862 9.95944745,4.9713069 9.4118979,7.69300887 C10.2423116,7.89401254 11.1087784,8 12,8 C12.8912216,8 13.7576884,7.89401254 14.5874837,7.69395447 C14.0230726,4.88441938 12.9672764,3 12,3 L12,3 Z M8.65484124,3.64169598 L8.49679384,3.70726461 C7.33468666,4.1987945 6.29730504,4.92746844 5.44531438,5.83262103 C6.07844331,6.30540934 6.76562407,6.7103793 7.49499529,7.03820042 C7.77475679,5.73764685 8.16682009,4.58361895 8.65484124,3.64169598 Z M15.3449969,3.64212484 L15.3819675,3.71350051 C15.8529209,4.64203029 16.2323126,5.77049295 16.5050281,7.03759511 C17.2343759,6.71032862 17.9215567,6.30533179 18.5561535,5.83357034 C17.6642168,4.8865893 16.5712333,4.1333367 15.3449969,3.64212484 Z"></path></svg>
